<svg id="Layer_1" data-name="Layer 1" xmlns="http://www.w3.org/2000/svg" viewBox="0 0 79.07 15.59"><defs><style>.cls-1{fill:#fff;}.cls-2{fill:#f15a29;}</style></defs><path class="cls-1" d="M17.57,3.51h2.07l.53,6.05,3.09-6.05h2.06L20.47,12H18.83Z"/><path class="cls-1" d="M25.54,5.73h1.92L26.11,12H24.19Zm.51-2.46H28L27.6,5H25.68Z"/><path class="cls-1" d="M29.89,12.15A2.35,2.35,0,0,1,29,12a2,2,0,0,1-.7-.54,2.44,2.44,0,0,1-.44-.81,3.31,3.31,0,0,1-.15-1,4.14,4.14,0,0,1,.28-1.52,4.58,4.58,0,0,1,.75-1.27,3.81,3.81,0,0,1,1.09-.87,2.91,2.91,0,0,1,1.31-.32,1.74,1.74,0,0,1,1.05.31,1.72,1.72,0,0,1,.6.84l.74-3.49h1.93L34,9.87A.78.78,0,0,0,34,10a.37.37,0,0,0,0,.11c0,.18.1.28.3.29L33.94,12l-.48.08h-.34a1.37,1.37,0,0,1-.74-.18.61.61,0,0,1-.29-.58,1.52,1.52,0,0,1,0-.38,2.87,2.87,0,0,1-1,.88A2.79,2.79,0,0,1,29.89,12.15Zm.87-1.62a1.35,1.35,0,0,0,.73-.24,2.2,2.2,0,0,0,.65-.64l.27-1.32a1.29,1.29,0,0,0-.36-.78.92.92,0,0,0-.68-.31,1.29,1.29,0,0,0-.63.17,1.84,1.84,0,0,0-.54.46,2.08,2.08,0,0,0-.37.65,2,2,0,0,0-.14.76,1.36,1.36,0,0,0,.28.89A1,1,0,0,0,30.76,10.53Z"/><path class="cls-1" d="M37.92,12.15a2.92,2.92,0,0,1-1.1-.2A2.32,2.32,0,0,1,36,11.4a2.25,2.25,0,0,1-.52-.84,3.06,3.06,0,0,1-.18-1.08A3.7,3.7,0,0,1,35.59,8a3.82,3.82,0,0,1,.87-1.23,4.11,4.11,0,0,1,1.29-.84,4.17,4.17,0,0,1,1.59-.3,2.76,2.76,0,0,1,1.71.47,1.56,1.56,0,0,1,.61,1.33A1.69,1.69,0,0,1,40.73,9a5.91,5.91,0,0,1-2.81.53H37.6l-.33,0a1.66,1.66,0,0,0,.23,1,.87.87,0,0,0,.77.33A1.65,1.65,0,0,0,39.66,10l1.51.48a3.54,3.54,0,0,1-.61.68,4.17,4.17,0,0,1-1.69.87A3.81,3.81,0,0,1,37.92,12.15ZM39,7a1.29,1.29,0,0,0-.93.37,2.42,2.42,0,0,0-.6,1h.43a4.22,4.22,0,0,0,1.48-.18.59.59,0,0,0,.42-.55.52.52,0,0,0-.23-.44A1,1,0,0,0,39,7Z"/><path class="cls-1" d="M44.58,12.15a2.91,2.91,0,0,1-1.15-.21,2.23,2.23,0,0,1-1.3-1.41,3,3,0,0,1-.17-1,3.83,3.83,0,0,1,.29-1.45,4.1,4.1,0,0,1,.82-1.25,3.91,3.91,0,0,1,1.26-.88A4,4,0,0,1,46,5.61a2.9,2.9,0,0,1,1.14.21,2.32,2.32,0,0,1,.82.57,2.43,2.43,0,0,1,.5.83,3.4,3.4,0,0,1,.16,1,3.82,3.82,0,0,1-.29,1.44,3.72,3.72,0,0,1-.82,1.25,4.07,4.07,0,0,1-1.26.88A3.82,3.82,0,0,1,44.58,12.15Zm.35-1.62a1.27,1.27,0,0,0,.62-.16,1.58,1.58,0,0,0,.53-.44,2.4,2.4,0,0,0,.37-.65,2.36,2.36,0,0,0,.13-.8,1.44,1.44,0,0,0-.25-.9.85.85,0,0,0-.71-.34A1.27,1.27,0,0,0,45,7.4a1.68,1.68,0,0,0-.53.43,2.33,2.33,0,0,0-.36.66,2.1,2.1,0,0,0-.14.8,1.38,1.38,0,0,0,.26.9A.81.81,0,0,0,44.93,10.53Z"/><path class="cls-1" d="M50.15,5.73h1.76L51.64,7a3.83,3.83,0,0,1,1-1,2,2,0,0,1,1.1-.36,1.16,1.16,0,0,1,.27,0l-.36,1.71a3.71,3.71,0,0,0-1.21.23,2.06,2.06,0,0,0-.92.65L50.72,12H48.8Z"/><path class="cls-1" d="M55.7,12.15a2.35,2.35,0,0,1-.94-.19,2.06,2.06,0,0,1-.7-.54,2.44,2.44,0,0,1-.44-.81,3.31,3.31,0,0,1-.15-1,4.36,4.36,0,0,1,.28-1.52A4.58,4.58,0,0,1,54.5,6.8a3.85,3.85,0,0,1,1.1-.87,2.84,2.84,0,0,1,1.3-.32A1.74,1.74,0,0,1,58,5.92a1.6,1.6,0,0,1,.6.84l.21-1H60.7l-.89,4.11a.78.78,0,0,0,0,.14s0,.07,0,.11.1.28.3.29L59.75,12l-.48.08h-.34a1.33,1.33,0,0,1-.74-.18.69.69,0,0,1-.28-.62A1.77,1.77,0,0,1,58,11a2.82,2.82,0,0,1-2.25,1.17Zm.87-1.62a1.35,1.35,0,0,0,.73-.24A2.2,2.2,0,0,0,58,9.65l.27-1.32a1.29,1.29,0,0,0-.36-.78.9.9,0,0,0-.68-.31,1.29,1.29,0,0,0-.63.17,2.13,2.13,0,0,0-.54.46,2.08,2.08,0,0,0-.37.65,2.18,2.18,0,0,0-.14.76,1.36,1.36,0,0,0,.28.89A1,1,0,0,0,56.57,10.53Z"/><path class="cls-1" d="M62.17,5.73H63.9l-.23,1a3.06,3.06,0,0,1,1.08-.87,3.14,3.14,0,0,1,1.33-.3,2,2,0,0,1,.65.09,1.2,1.2,0,0,1,.43.26.9.9,0,0,1,.25.39,1.78,1.78,0,0,1,.1.48,3.33,3.33,0,0,1,1.09-.9,2.79,2.79,0,0,1,1.31-.32,1.78,1.78,0,0,1,.69.12,1,1,0,0,1,.43.32,1.07,1.07,0,0,1,.23.45,2,2,0,0,1,.07.55,3.29,3.29,0,0,1,0,.38,4.06,4.06,0,0,1-.09.57l-.87,4H68.42l.76-3.54c0-.1,0-.19,0-.27a2.12,2.12,0,0,0,0-.24.8.8,0,0,0-.14-.51.51.51,0,0,0-.39-.17,1,1,0,0,0-.37.08,2,2,0,0,0-.38.24A3.91,3.91,0,0,0,67.6,8a2.66,2.66,0,0,0-.29.45L66.55,12H64.63l.76-3.54c0-.1,0-.19,0-.27a2.12,2.12,0,0,0,0-.24.74.74,0,0,0-.15-.51.51.51,0,0,0-.39-.17,1.27,1.27,0,0,0-.75.32,2.41,2.41,0,0,0-.64.8L62.75,12H60.83Z"/><path class="cls-1" d="M74.08,12.15a2.37,2.37,0,0,1-1-.19,2.06,2.06,0,0,1-.7-.54,2.44,2.44,0,0,1-.44-.81,3.31,3.31,0,0,1-.15-1,4.4,4.4,0,0,1,1-2.79A3.67,3.67,0,0,1,74,5.93a2.85,2.85,0,0,1,1.31-.32,1.73,1.73,0,0,1,1,.31,1.6,1.6,0,0,1,.6.84l.22-1h1.93l-.89,4.11c0,.05,0,.1,0,.14v.11c0,.18.1.28.3.29L78.12,12l-.47.08H77.3a1.33,1.33,0,0,1-.74-.18.71.71,0,0,1-.28-.62,3.26,3.26,0,0,1,0-.34,2.79,2.79,0,0,1-1,.88A2.75,2.75,0,0,1,74.08,12.15Zm.86-1.62a1.35,1.35,0,0,0,.73-.24,2.08,2.08,0,0,0,.65-.64l.28-1.32a1.29,1.29,0,0,0-.36-.78.92.92,0,0,0-.69-.31,1.35,1.35,0,0,0-.63.17,2.13,2.13,0,0,0-.54.46,2.29,2.29,0,0,0-.37.65,2.18,2.18,0,0,0-.14.76,1.41,1.41,0,0,0,.28.89A1,1,0,0,0,74.94,10.53Z"/><circle class="cls-2" cx="7.8" cy="7.8" r="7.8"/><path class="cls-1" d="M9.25,11.83a2.06,2.06,0,0,0-2.91,0L2.05,7.54a8.12,8.12,0,0,1,11.5,0Z"/></svg>